<?xml version="1.0" standalone="no"?>
<!DOCTYPE svg PUBLIC "-//W3C//DTD SVG 20010904//EN" "http://www.w3.org/TR/2001/REC-SVG-20010904/DTD/svg10.dtd">
<!-- Created using Karbon, part of Calligra: http://www.calligra.org/karbon -->
<svg xmlns="http://www.w3.org/2000/svg" xmlns:xlink="http://www.w3.org/1999/xlink" width="595.277pt" height="841.891pt">
<defs/>
<g id="layer0">
  <g id="group0" transform="translate(244.334, 377.01)" fill="none">
   <path id="shape0" transform="translate(5.77368, 260.158)" fill="#5c5052" fill-rule="evenodd" stroke="#000000" stroke-width="1.41732529000" stroke-linecap="butt" stroke-linejoin="miter" stroke-miterlimit="2.00000000000" d="M0 20.1696L25.212 25.212L21.4302 0C21.4302 0 14.2869 6.72322 0 20.1696Z"/>
   <path id="shape1" transform="translate(3.2011, 246.009)" fill="#5c5052" fill-rule="evenodd" stroke="#000000" stroke-width="1.41732529000" stroke-linecap="butt" stroke-linejoin="miter" stroke-miterlimit="2.00000000000" d="M0 34.4618L5.07393 0C21.1413 9.35999 29.175 14.4655 29.175 15.3164C29.175 16.5927 29.175 16.5927 0 34.4618Z"/>
   <path id="shape2" transform="translate(9.63255, 216.425)" fill="#b97b6c" fill-rule="evenodd" stroke="#000000" stroke-width="1.41732529000" stroke-linecap="butt" stroke-linejoin="miter" stroke-miterlimit="2.00000000000" d="M24.1431 39.7504C25.8374 37.1858 27.9551 23.9357 30.4966 0L0 30.7745C0 30.7745 8.04769 33.7664 24.1431 39.7504Z"/>
   <path id="shape3" transform="translate(14.7777, 191.779)" fill="#b97b6c" fill-rule="evenodd" stroke="#000000" stroke-width="1.41732529000" stroke-linecap="butt" stroke-linejoin="miter" stroke-miterlimit="2.00000000000" d="M0 54.7143L33.1398 27.4609C12.7461 7.56172 2.54922 -1.52273 2.54922 0.207645C2.54922 2.8032 2.54922 2.8032 0 54.7143Z"/>
   <path id="shape4" transform="translate(10.9188, 163.687)" fill="#bd8f7f" fill-rule="evenodd" stroke="#000000" stroke-width="1.41732529000" stroke-linecap="butt" stroke-linejoin="miter" stroke-miterlimit="2.00000000000" d="M34.6036 46.363C35.458 46.363 32.4675 30.9087 25.6322 0L0 23.1815L32.0403 39.9237C32.0403 39.9237 32.8947 42.07 34.6036 46.363Z"/>
   <path id="shape5" transform="translate(34.0721, 166.259)" fill="#bd8f7f" fill-rule="evenodd" stroke="#000000" stroke-width="1.41732529000" stroke-linecap="butt" stroke-linejoin="miter" stroke-miterlimit="2.00000000000" d="M11.4163 46.363L29.175 0L0 28.3329C0 28.3329 3.80545 34.343 11.4163 46.363Z"/>
   <path id="shape6" transform="translate(32.7858, 167.545)" fill="#b97b6c" fill-rule="evenodd" stroke="#000000" stroke-width="1.41732529000" stroke-linecap="butt" stroke-linejoin="miter" stroke-miterlimit="2.00000000000" d="M0 0C0.838301 0 1.6766 3.97091 2.5149 11.9127L23.8916 1.32363C23.8916 1.32363 15.9277 0.882422 0 0Z"/>
   <path id="shape7" transform="translate(27.6406, 125.098)" fill="#dab298" fill-rule="evenodd" stroke="#000000" stroke-width="1.41732529000" stroke-linecap="butt" stroke-linejoin="miter" stroke-miterlimit="2.00000000000" d="M0 35.9228C0 35.0676 0.86594 23.0933 2.59782 0C24.2463 17.9614 33.3387 29.0804 29.8749 33.3569C24.6793 39.7717 24.6793 39.7717 0 35.9228Z"/>
   <path id="shape8" transform="translate(37.9309, 127.67)" fill="#f2d2bd" fill-rule="evenodd" stroke="#000000" stroke-width="1.41732529000" stroke-linecap="butt" stroke-linejoin="miter" stroke-miterlimit="2.00000000000" d="M23.8916 43.7177L22.6342 0C7.54471 18.8587 0 27.8593 0 27.0022C0 25.7163 0 25.7163 23.8916 43.7177Z"/>
   <path id="shape9" transform="translate(25.068, 92.9407)" fill="#f2d2bd" fill-rule="evenodd" stroke="#000000" stroke-width="1.41732529000" stroke-linecap="butt" stroke-linejoin="miter" stroke-miterlimit="2.00000000000" d="M8.9054 52.9768L37.1058 33.595L25.232 0L0 34.8872C4.94744 43.5014 7.91592 49.5312 8.9054 52.9768Z"/>
   <path id="shape10" transform="translate(19.9229, 54.352)" fill="#faeadb" fill-rule="evenodd" stroke="#000000" stroke-width="1.41732529000" stroke-linecap="butt" stroke-linejoin="miter" stroke-miterlimit="2.00000000000" d="M10.1655 62.2377C11.8598 61.3734 8.47125 40.6274 0 0L30.4966 40.1953C30.4966 40.1953 23.7195 47.5428 10.1655 62.2377Z"/>
   <path id="shape11" transform="translate(26.3543, 59.4971)" fill="#fcf0f0" fill-rule="evenodd" stroke="#000000" stroke-width="1.41732529000" stroke-linecap="butt" stroke-linejoin="miter" stroke-miterlimit="2.00000000000" d="M0 1.2888L37.3752 0L47.6857 47.6857C36.516 44.2488 30.072 41.6712 28.3536 39.9528C25.776 37.3752 1.2888 3.86641 0 1.2888Z"/>
   <path id="shape12" transform="translate(59.7979, 98.0858)" fill="#faeadb" fill-rule="evenodd" stroke="#000000" stroke-width="1.41732529000" stroke-linecap="butt" stroke-linejoin="miter" stroke-miterlimit="2.00000000000" d="M16.7765 0C34.8435 31.8413 43.0167 48.1923 41.2959 49.0528C39.5753 49.9134 25.8099 38.2957 0 14.1996C0 14.1996 5.59216 9.46635 16.7765 0Z"/>
   <path id="shape13" transform="translate(53.3664, 100.658)" fill="none" stroke="#000000" stroke-width="1.41732529000" stroke-linecap="butt" stroke-linejoin="miter" stroke-miterlimit="2.00000000000" d="M0 2.64726C4.41212 7.9418 7.05938 10.5891 7.9418 10.5891C8.82422 10.5891 12.7951 7.05938 19.8545 0C6.61817 5.29454 0 6.17696 0 2.64726Z"/>
   <path id="shape14" transform="translate(64.943, 68.5012)" fill="#fcf0f0" fill-rule="evenodd" stroke="#000000" stroke-width="1.41732529000" stroke-linecap="butt" stroke-linejoin="miter" stroke-miterlimit="2.00000000000" d="M0 0L55.6227 64.0118L37.5129 75.5339C37.5129 75.5339 25.0086 50.356 0 0Z"/>
   <path id="shape15" transform="translate(98.3866, 146.965)" fill="#dab298" fill-rule="evenodd" stroke="#000000" stroke-width="1.41732529000" stroke-linecap="butt" stroke-linejoin="miter" stroke-miterlimit="2.00000000000" d="M0 0L29.6629 70.2455L49.0084 52.3648C49.0084 52.3648 32.6722 34.9099 0 0Z"/>
   <path id="shape16" transform="translate(99.6729, 136.675)" fill="#f2d2bd" fill-rule="evenodd" stroke="#000000" stroke-width="1.41732529000" stroke-linecap="butt" stroke-linejoin="miter" stroke-miterlimit="2.00000000000" d="M0 11.4715L17.2072 0L19.8545 33.1398C19.8545 33.1398 13.2363 25.9171 0 11.4715Z"/>
   <path id="shape17" transform="translate(118.967, 139.247)" fill="#f2d2bd" fill-rule="evenodd" stroke="#000000" stroke-width="1.41732529000" stroke-linecap="butt" stroke-linejoin="miter" stroke-miterlimit="2.00000000000" d="M2.53696 0L29.175 54.2997L0 32.3213C0 32.3213 0.845654 21.5475 2.53696 0Z"/>
   <path id="shape18" transform="translate(149.838, 188.126)" fill="#dab298" fill-rule="evenodd" stroke="#000000" stroke-width="1.41732529000" stroke-linecap="butt" stroke-linejoin="miter" stroke-miterlimit="2.00000000000" d="M0 0L33.1398 54.458L14.0208 62.2377C14.0208 62.2377 9.34715 41.4918 0 0Z"/>
   <path id="shape19" transform="translate(127.971, 193.271)" fill="#bd8f7f" fill-rule="evenodd" stroke="#000000" stroke-width="1.41732529000" stroke-linecap="butt" stroke-linejoin="miter" stroke-miterlimit="2.00000000000" d="M0 17.933L33.1398 38.4281L25.4922 0C25.4922 0 16.9948 5.9777 0 17.933Z"/>
   <path id="shape20" transform="translate(131.83, 211.279)" fill="#bd8f7f" fill-rule="evenodd" stroke="#000000" stroke-width="1.41732529000" stroke-linecap="butt" stroke-linejoin="miter" stroke-miterlimit="2.00000000000" d="M0 0L10.0318 31.8181L22.5715 21.6363C22.5715 21.6363 15.0476 14.4243 0 0Z"/>
   <path id="shape21" transform="translate(143.407, 230.574)" fill="#b97b6c" fill-rule="evenodd" stroke="#000000" stroke-width="1.41732529000" stroke-linecap="butt" stroke-linejoin="miter" stroke-miterlimit="2.00000000000" d="M0 11.6791L12.7636 0L34.4618 64.884C34.4618 64.884 22.9745 47.1491 0 11.6791Z"/>
   <path id="shape22" transform="translate(162.701, 238.291)" fill="#b97b6c" fill-rule="evenodd" stroke="#000000" stroke-width="1.41732529000" stroke-linecap="butt" stroke-linejoin="miter" stroke-miterlimit="2.00000000000" d="M20.486 0C22.1933 5.15144 20.0592 20.6057 14.0842 46.363L0 7.72716C0 7.72716 6.82868 5.15144 20.486 0Z"/>
   <path id="shape23" transform="translate(179.423, 252.441)" fill="#5c5052" fill-rule="evenodd" stroke="#000000" stroke-width="1.41732529000" stroke-linecap="butt" stroke-linejoin="miter" stroke-miterlimit="2.00000000000" d="M3.85745 6.41135C6.42908 6.41135 19.7158 17.0969 43.7177 38.4682L0 39.7504L2.57163 0C2.57163 0 3.00023 2.13711 3.85745 6.41135Z"/>
   <path id="shape24" transform="translate(179.423, 231.813)" fill="#b97b6c" fill-rule="evenodd" stroke="#000000" stroke-width="1.41732529000" stroke-linecap="butt" stroke-linejoin="miter" stroke-miterlimit="2.00000000000" d="M0 25.9263C0 24.6323 25.8471 -1.24703 25.8471 0.0469368C25.8471 1.34091 46.525 54.3936 43.9402 54.3936C41.3554 54.3936 41.3554 54.3936 0 25.9263Z"/>
   <path id="shape25" transform="translate(199.949, 208.707)" fill="#bd8f7f" fill-rule="evenodd" stroke="#000000" stroke-width="1.41732529000" stroke-linecap="butt" stroke-linejoin="miter" stroke-miterlimit="2.00000000000" d="M25.849 71.5675C25.849 68.1595 24.5592 44.3037 21.9799 0C8.22286 20.4478 0.914468 30.6718 0.0546572 30.6718C-1.23506 30.6718 20.6901 72.8455 24.5592 66.4556C28.4284 60.0656 28.4284 60.0656 25.849 71.5675Z"/>
   <path id="shape26" transform="translate(184.568, 180.408)" fill="#f2d2bd" fill-rule="evenodd" stroke="#000000" stroke-width="1.41732529000" stroke-linecap="butt" stroke-linejoin="miter" stroke-miterlimit="2.00000000000" d="M1.28352 64.884L0 0L41.0727 27.2513C41.0727 27.2513 27.8097 39.7955 1.28352 64.884Z"/>
   <path id="shape27" transform="translate(200.003, 137.961)" fill="#faeadb" fill-rule="evenodd" stroke="#000000" stroke-width="1.41732529000" stroke-linecap="butt" stroke-linejoin="miter" stroke-miterlimit="2.00000000000" d="M21.7985 66.2071L39.7504 1.29818L0 0C0 0 7.2662 22.069 21.7985 66.2071Z"/>
   <path id="shape28" transform="translate(161.268, 122.525)" fill="#faeadb" fill-rule="evenodd" stroke="#000000" stroke-width="1.41732529000" stroke-linecap="butt" stroke-linejoin="miter" stroke-miterlimit="2.00000000000" d="M22.026 51.654C22.026 50.3627 2.72108 0 0.147086 0C-1.56891 0 11.7301 6.8872 40.044 20.6616C40.044 20.6616 34.038 30.9924 22.026 51.654Z"/>
   <path id="shape29" transform="translate(185.854, 139.247)" fill="#faeadb" fill-rule="evenodd" stroke="#000000" stroke-width="1.41732529000" stroke-linecap="butt" stroke-linejoin="miter" stroke-miterlimit="2.00000000000" d="M0 33.1398L34.4618 66.2798L17.869 0C17.869 0 11.9127 11.0466 0 33.1398Z"/>
   <path id="shape30" transform="translate(218.012, 74.9326)" fill="#fcf0f0" fill-rule="evenodd" stroke="#000000" stroke-width="1.41732529000" stroke-linecap="butt" stroke-linejoin="miter" stroke-miterlimit="2.00000000000" d="M24.1431 56.9457C24.1431 47.4548 26.2609 28.4728 30.4966 0L0 27.1786C0 27.1786 8.04769 37.1009 24.1431 56.9457Z"/>
   <path id="shape31" transform="translate(194.804, 101.945)" fill="#fcf0f0" fill-rule="evenodd" stroke="#000000" stroke-width="1.41732529000" stroke-linecap="butt" stroke-linejoin="miter" stroke-miterlimit="2.00000000000" d="M21.9579 0C20.6695 1.29662 -1.23376 41.4918 0.0546623 44.0851C0.913613 45.8139 15.9453 41.4918 45.1496 31.1189C45.1496 31.1189 37.419 20.7459 21.9579 0Z"/>
   <path id="shape32" transform="translate(155.664, 89.0818)" fill="#fcf0f0" fill-rule="evenodd" stroke="#000000" stroke-width="1.41732529000" stroke-linecap="butt" stroke-linejoin="miter" stroke-miterlimit="2.00000000000" d="M56.9057 11.6073L10.8392 0C0.602175 12.8969 -2.38361 21.9247 1.8818 27.0836C6.14722 32.2424 18.5169 39.5506 38.9909 49.0084C38.9909 49.0084 44.9626 36.5413 56.9057 11.6073Z"/>
   <path id="shape33" transform="translate(175.564, 69.7874)" fill="#ed4f4e" fill-rule="evenodd" stroke="#000000" stroke-width="1.41732529000" stroke-linecap="butt" stroke-linejoin="miter" stroke-miterlimit="2.00000000000" d="M0 15.8836L0 0C18.7921 13.2363 26.9069 19.8545 24.3443 19.8545C20.5004 19.8545 1.28127 19.8545 0 15.8836Z"/>
   <path id="shape34" transform="translate(172.991, 85.106)" fill="#fe975c" fill-rule="evenodd" stroke="#000000" stroke-width="1.41732529000" stroke-linecap="butt" stroke-linejoin="miter" stroke-miterlimit="2.00000000000" d="M0 4.13255L26.5329 12.1546C25.6906 3.24122 25.2693 -0.76979 25.2693 0.121546C25.2693 1.45855 25.2693 1.45855 0 4.13255Z"/>
   <path id="shape35" transform="translate(201.29, 92.9407)" fill="#efac81" fill-rule="evenodd" stroke="#000000" stroke-width="1.41732529000" stroke-linecap="butt" stroke-linejoin="miter" stroke-miterlimit="2.00000000000" d="M3.97091 0L18.5308 9.26543L0 6.61817C0 6.61817 1.32363 4.41212 3.97091 0Z"/>
   <path id="shape36" transform="translate(198.717, 76.2189)" fill="#fda96b" fill-rule="evenodd" stroke="#000000" stroke-width="1.41732529000" stroke-linecap="butt" stroke-linejoin="miter" stroke-miterlimit="2.00000000000" d="M0 0C0.850907 0.882422 1.27636 7.9418 1.27636 21.1781L34.4618 11.9127C34.4618 11.9127 22.9745 7.9418 0 0Z"/>
   <path id="shape37" transform="translate(201.29, 42.7754)" fill="#ed4f4e" fill-rule="evenodd" stroke="#000000" stroke-width="1.41732529000" stroke-linecap="butt" stroke-linejoin="miter" stroke-miterlimit="2.00000000000" d="M26.5329 34.4618C24.8482 33.6108 24.427 22.1236 25.2693 0L0 29.3563C17.6885 31.909 26.5329 33.6108 26.5329 34.4618Z"/>
   <path id="shape38" transform="translate(174.096, 53.2471)" fill="#fb6950" fill-rule="evenodd" stroke="#000000" stroke-width="1.41732529000" stroke-linecap="butt" stroke-linejoin="miter" stroke-miterlimit="2.00000000000" d="M0 0L8.94593 30.4966L35.7838 18.298C35.7838 18.298 23.8558 12.1986 0 0Z"/>
   <path id="shape39" transform="translate(175.564, 37.6302)" fill="#fb6950" fill-rule="evenodd" stroke="#000000" stroke-width="1.41732529000" stroke-linecap="butt" stroke-linejoin="miter" stroke-miterlimit="2.00000000000" d="M0 0L6.50787 21.6683L32.5393 33.1398C37.7456 27.1917 39.4811 24.2176 37.7456 24.2176C35.1425 24.2176 35.1425 24.2176 0 0Z"/>
   <path id="shape40" transform="translate(178.137, 37.6302)" fill="#fb6950" fill-rule="evenodd" stroke="#000000" stroke-width="1.41732529000" stroke-linecap="butt" stroke-linejoin="miter" stroke-miterlimit="2.00000000000" d="M0 0C0.860361 1.76484 17.6374 4.41212 50.3312 7.9418L33.5541 21.1781C33.5541 21.1781 22.3695 14.1187 0 0Z"/>
   <path id="shape41" transform="translate(181.995, 18.3358)" fill="#ed4f4e" fill-rule="evenodd" stroke="#000000" stroke-width="1.41732529000" stroke-linecap="butt" stroke-linejoin="miter" stroke-miterlimit="2.00000000000" d="M0 19.1374L8.79358 0C18.006 12.7582 22.1934 19.9879 21.3558 21.6889C20.0996 24.2406 20.0996 24.2406 0 19.1374Z"/>
   <path id="shape42" transform="translate(190.999, 11.9044)" fill="#ed4f4e" fill-rule="evenodd" stroke="#000000" stroke-width="1.41732529000" stroke-linecap="butt" stroke-linejoin="miter" stroke-miterlimit="2.00000000000" d="M34.4618 30.4966C18.2946 25.4137 10.2109 23.7195 10.2109 25.4137C10.2109 27.108 6.80726 18.6368 0 0C22.9745 20.331 34.4618 30.4966 34.4618 30.4966Z"/>
   <path id="shape43" transform="translate(209.008, 64.6423)" fill="#fb6950" fill-rule="evenodd" stroke="#000000" stroke-width="1.41732529000" stroke-linecap="butt" stroke-linejoin="miter" stroke-miterlimit="2.00000000000" d="M17.6484 0L25.212 19.8545L0 14.56C0 14.56 5.88282 9.70665 17.6484 0Z"/>
   <path id="shape44" transform="translate(163.806, 49.2068)" fill="#c94b4e" fill-rule="evenodd" stroke="#000000" stroke-width="1.41732529000" stroke-linecap="butt" stroke-linejoin="miter" stroke-miterlimit="2.00000000000" d="M11.9127 29.5979C9.26543 31.3138 5.29454 36.4612 0 45.0403L14.56 0C14.56 0 13.6775 9.86598 11.9127 29.5979Z"/>
   <path id="shape45" transform="translate(167.846, 17.0495)" fill="#c94b4e" fill-rule="evenodd" stroke="#000000" stroke-width="1.41732529000" stroke-linecap="butt" stroke-linejoin="miter" stroke-miterlimit="2.00000000000" d="M10.5891 0L11.9127 40.0068L0 50.3312C0 50.3312 3.5297 33.5541 10.5891 0Z"/>
   <path id="shape46" transform="translate(175.564, 6.57778)" fill="#c94b4e" fill-rule="evenodd" stroke="#000000" stroke-width="1.41732529000" stroke-linecap="butt" stroke-linejoin="miter" stroke-miterlimit="2.00000000000" d="M0 15.1616C0 14.3194 10.606 9.26544 31.8181 0L5.0909 26.5329C5.0909 26.5329 3.39394 22.7425 0 15.1616Z"/>
   <path id="shape47" transform="translate(161.415, 20.9084)" fill="#ed4f4e" fill-rule="evenodd" stroke="#000000" stroke-width="1.41732529000" stroke-linecap="butt" stroke-linejoin="miter" stroke-miterlimit="2.00000000000" d="M11.9127 0C3.97091 17.9517 0 27.3551 0 28.2099C0 29.0648 2.64726 32.9116 7.9418 39.7504C7.9418 39.7504 9.26543 26.5003 11.9127 0Z"/>
   <path id="shape48" transform="translate(227.197, 40.2028)" fill="#c94b4e" fill-rule="evenodd" stroke="#000000" stroke-width="1.41732529000" stroke-linecap="butt" stroke-linejoin="miter" stroke-miterlimit="2.00000000000" d="M0 43.4591C3.36161 41.0446 11.7656 35.6122 25.212 27.1619L0 0C2.24107 31.387 2.24107 45.8734 0 43.4591Z"/>
   <path id="shape49" transform="translate(193.572, 14.477)" fill="#ed4f4e" fill-rule="evenodd" stroke="#000000" stroke-width="1.41732529000" stroke-linecap="butt" stroke-linejoin="miter" stroke-miterlimit="2.00000000000" d="M33.5647 34.4618C34.4254 32.7599 33.995 22.5491 32.2738 3.82909L0 0C0 0 11.1882 11.4873 33.5647 34.4618Z"/>
   <path id="shape50" transform="translate(224.624, 2.90036)" fill="#c94b4e" fill-rule="evenodd" stroke="#000000" stroke-width="1.41732529000" stroke-linecap="butt" stroke-linejoin="miter" stroke-miterlimit="2.00000000000" d="M0 19.332L9.26543 47.6857L13.2363 0C13.2363 0 8.82422 6.44401 0 19.332Z"/>
   <path id="shape51" transform="translate(198.899, 7.86407)" fill="#c94b4e" fill-rule="evenodd" stroke="#000000" stroke-width="1.41732529000" stroke-linecap="butt" stroke-linejoin="miter" stroke-miterlimit="2.00000000000" d="M0 7.9418C4.26505 7.9418 11.9421 10.1479 23.0313 14.56L37.1058 0C37.1058 0 24.7372 2.64726 0 7.9418Z"/>
  </g>
 </g>
</svg>
