<?xml version="1.0" standalone="no"?>
<!DOCTYPE svg PUBLIC "-//W3C//DTD SVG 20010904//EN" "http://www.w3.org/TR/2001/REC-SVG-20010904/DTD/svg10.dtd">
<!-- Created using Karbon, part of Calligra: http://www.calligra.org/karbon -->
<svg xmlns="http://www.w3.org/2000/svg" xmlns:xlink="http://www.w3.org/1999/xlink" width="595.277pt" height="841.891pt">
<defs/>
<g id="layer0">
  <g id="group0" transform="translate(59.0402, 20.5441)" fill="none">
   <path id="shape0" transform="translate(-6.30235, 50.2018)" fill="#fcf0f0" fill-rule="evenodd" stroke="#000000" stroke-width="1.41732529000" d="M0 0L51.4516 0L2.57258 34.7298C2.57258 34.7298 1.71505 23.1532 0 0Z"/>
   <path id="shape1" transform="translate(41.2904, 50.2018)" fill="#faeadb" fill-rule="evenodd" stroke="#000000" stroke-width="1.41732529000" d="M1.28629 0L27.0121 15.4355L0 55.3105C0 55.3105 0.428763 36.8736 1.28629 0Z"/>
   <path id="shape2" transform="translate(-2.44348, 52.7744)" fill="#faeadb" fill-rule="evenodd" stroke="#000000" stroke-width="1.41732529000" d="M0 32.1573L43.7339 55.3105L43.7339 0L5.14516 28.2984C5.14516 28.2984 3.43011 29.5847 0 32.1573Z"/>
   <path id="shape3" transform="translate(46.4355, 66.9236)" fill="#f2d2bd" fill-rule="evenodd" stroke="#000000" stroke-width="1.41732529000" d="M0 36.0161L60.4556 52.7379L23.1532 0C23.1532 0 15.4355 12.0054 0 36.0161Z"/>
   <path id="shape4" transform="translate(45.1493, 101.653)" fill="#dab298" fill-rule="evenodd" stroke="#000000" stroke-width="1.41732529000" d="M60.4556 15.4355L56.5968 63.0282L0 0C0 0 20.1519 5.14516 60.4556 15.4355Z"/>
   <path id="shape5" transform="translate(101.746, 124.807)" fill="#dab298" fill-rule="evenodd" stroke="#000000" stroke-width="1.41732529000" d="M3.85887 0L28.2984 43.7339L0 37.3024C0 37.3024 1.28629 24.8683 3.85887 0Z"/>
   <path id="shape6" transform="translate(45.1493, 135.097)" fill="#bd8f7f" fill-rule="evenodd" stroke="#000000" stroke-width="1.41732529000" d="M34.7298 0L0 20.5806L54.0242 29.5847C54.0242 29.5847 47.5927 19.7231 34.7298 0Z"/>
   <path id="shape7" transform="translate(2.70168, 155.678)" fill="#bd8f7f" fill-rule="evenodd" stroke="#000000" stroke-width="1.41732529000" d="M43.7339 0L0 6.43145L29.5847 29.5847L72.0322 23.1532C72.0322 23.1532 62.5994 15.4355 43.7339 0Z"/>
   <path id="shape8" transform="translate(51.5807, 158.25)" fill="#bd8f7f" fill-rule="evenodd" stroke="#000000" stroke-width="1.41732529000" d="M23.1532 18.0081L43.7339 9.00403L0 0C0 0 7.71774 6.00269 23.1532 18.0081Z"/>
   <path id="shape9" transform="translate(70.8751, 159.536)" fill="#bd8f7f" fill-rule="evenodd" stroke="#000000" stroke-width="1.41732529000" d="M52.7379 6.43145L0 21.8669L33.4435 0C33.4435 0 39.875 2.14382 52.7379 6.43145Z"/>
   <path id="shape10" transform="translate(78.5928, 160.823)" fill="#b97b6c" fill-rule="evenodd" stroke="#000000" stroke-width="1.41732529000" d="M48.879 0C48.0215 0 44.5914 21.4382 38.5887 64.3145L0 18.0081C0 18.0081 16.293 12.0054 48.879 0Z"/>
   <path id="shape11" transform="translate(95.3146, 195.553)" fill="#b97b6c" fill-rule="evenodd" stroke="#000000" stroke-width="1.41732529000" d="M0 0L0 38.5887L42.4476 59.1693C42.4476 59.1693 28.2984 39.4462 0 0Z"/>
   <path id="shape12" transform="translate(109.464, 183.976)" fill="#b97b6c" fill-rule="evenodd" stroke="#000000" stroke-width="1.41732529000" d="M5.14516 0C4.28763 0.857527 13.2917 20.1519 32.1573 57.8831L11.5766 68.1734L0 1.28629C0 1.28629 1.71505 0.857527 5.14516 0Z"/>
   <path id="shape13" transform="translate(63.1114, 236.714)" fill="#b97b6c" fill-rule="evenodd" stroke="#000000" stroke-width="1.41732529000" d="M33.4895 0C10.3363 18.0081 -0.811588 27.0121 0.0459389 27.0121C0.903466 27.0121 14.1951 33.4435 39.9209 46.3064L63.0742 3.85887C63.0742 3.85887 53.2126 2.57258 33.4895 0Z"/>
   <path id="shape14" transform="translate(31.0001, 263.726)" fill="#5c5052" fill-rule="evenodd" stroke="#000000" stroke-width="1.41732529000" d="M66.8871 14.1492L0 23.1532L25.7258 0C25.7258 0 39.4462 4.7164 66.8871 14.1492Z"/>
   <path id="shape15" transform="translate(7.84684, 253.436)" fill="#5c5052" fill-rule="evenodd" stroke="#000000" stroke-width="1.41732529000" d="M47.5927 5.14516C46.7352 5.14516 30.871 3.43011 0 0L5.14516 24.4395C16.293 28.7271 22.2957 30.871 23.1532 30.871C24.4395 30.871 24.4395 30.871 47.5927 5.14516Z"/>
   <path id="shape16" transform="translate(164.774, 261.153)" fill="#5c5052" fill-rule="evenodd" stroke="#000000" stroke-width="1.41732529000" d="M0 24.4395L38.5887 23.1532L11.5766 0C11.5766 0 7.71774 8.1465 0 24.4395Z"/>
   <path id="shape17" transform="translate(173.778, 231.569)" fill="#b97b6c" fill-rule="evenodd" stroke="#000000" stroke-width="1.41732529000" d="M0 24.4395L7.71774 0L37.3024 23.1532C37.3024 23.1532 24.8683 23.582 0 24.4395Z"/>
   <path id="shape18" transform="translate(173.778, 249.577)" fill="#5c5052" fill-rule="evenodd" stroke="#000000" stroke-width="1.41732529000" d="M30.871 29.5847C29.5847 28.2984 30.871 0 33.4435 0C35.1586 0 24.0107 3.43011 0 10.2903C0 10.2903 10.2903 16.7218 30.871 29.5847Z"/>
   <path id="shape19" transform="translate(177.637, 203.27)" fill="#b97b6c" fill-rule="evenodd" stroke="#000000" stroke-width="1.41732529000" d="M6.43145 30.871L0 0C21.4382 19.7231 32.586 29.1559 33.4435 28.2984C34.7298 27.0121 34.7298 27.0121 6.43145 30.871Z"/>
   <path id="shape20" transform="translate(182.782, 225.137)" fill="#b97b6c" fill-rule="evenodd" stroke="#000000" stroke-width="1.41732529000" d="M21.8669 25.7258L28.2984 0L0 5.14516C0 5.14516 7.28898 12.0054 21.8669 25.7258Z"/>
   <path id="shape21" transform="translate(180.21, 203.27)" fill="#b97b6c" fill-rule="evenodd" stroke="#000000" stroke-width="1.41732529000" d="M0 0L43.7339 1.28629L24.4395 27.0121C24.4395 27.0121 16.293 18.0081 0 0Z"/>
   <path id="shape22" transform="translate(180.21, 141.528)" fill="#bd8f7f" fill-rule="evenodd" stroke="#000000" stroke-width="1.41732529000" d="M7.71774 57.8831L0 0L43.7339 61.7419C43.7339 61.7419 31.7285 60.4556 7.71774 57.8831Z"/>
   <path id="shape23" transform="translate(178.923, 123.52)" fill="#f2d2bd" fill-rule="evenodd" stroke="#000000" stroke-width="1.41732529000" d="M0 18.0081L16.7218 0L46.3064 42.4476C46.3064 42.4476 30.871 34.3011 0 18.0081Z"/>
   <path id="shape24" transform="translate(178.923, 135.097)" fill="#bd8f7f" fill-rule="evenodd" stroke="#000000" stroke-width="1.41732529000" d="M0 0L52.7379 37.3024L42.4476 70.746C42.4476 70.746 28.2984 47.164 0 0Z"/>
   <path id="shape25" transform="translate(199.504, 83.6454)" fill="#faeadb" fill-rule="evenodd" stroke="#000000" stroke-width="1.41732529000" d="M0 39.875L19.2944 0L27.0121 33.4435C27.0121 33.4435 18.0081 35.5874 0 39.875Z"/>
   <path id="shape26" transform="translate(195.645, 120.948)" fill="#f2d2bd" fill-rule="evenodd" stroke="#000000" stroke-width="1.41732529000" d="M0 1.28629L23.1532 43.7339L28.2984 0C28.2984 0 18.8656 0.428763 0 1.28629Z"/>
   <path id="shape27" transform="translate(223.944, 43.7704)" fill="#fcf0f0" fill-rule="evenodd" stroke="#000000" stroke-width="1.41732529000" d="M0 39.875L16.7218 0L45.0202 5.14516C45.0202 5.14516 30.0134 16.7218 0 39.875Z"/>
   <path id="shape28" transform="translate(217.512, 87.5042)" fill="#faeadb" fill-rule="evenodd" stroke="#000000" stroke-width="1.41732529000" d="M0 0L14.1492 25.7258L37.3024 3.85887C37.3024 3.85887 24.8683 2.57258 0 0Z"/>
   <path id="shape29" transform="translate(221.371, 65.6373)" fill="#faeadb" fill-rule="evenodd" stroke="#000000" stroke-width="1.41732529000" d="M0 20.5806L27.0121 0L60.4556 10.2903C60.4556 10.2903 40.3038 13.7204 0 20.5806Z"/>
   <path id="shape30" transform="translate(248.383, 38.6252)" fill="#fcf0f0" fill-rule="evenodd" stroke="#000000" stroke-width="1.41732529000" d="M0 24.4395L42.4476 0L41.1613 42.4476C41.1613 42.4476 27.4409 36.4449 0 24.4395Z"/>
   <path id="shape31" transform="translate(294.69, 50.2018)" fill="#fcf0f0" fill-rule="evenodd" stroke="#000000" stroke-width="1.41732529000" d="M0 6.43145C4.28763 5.57392 17.1505 3.43011 38.5887 0L51.4516 45.0202C51.4516 45.0202 34.3011 32.1573 0 6.43145Z"/>
   <path id="shape32" transform="translate(319.129, 72.0688)" fill="#faeadb" fill-rule="evenodd" stroke="#000000" stroke-width="1.41732529000" d="M0 0L5.14516 34.7298L34.7298 30.871C34.7298 30.871 23.1532 20.5806 0 0Z"/>
   <path id="shape33" transform="translate(284.399, 50.2018)" fill="#fcf0f0" fill-rule="evenodd" stroke="#000000" stroke-width="1.41732529000" d="M3.85887 15.4355L25.7258 15.4355L0 0C0 0 1.28629 5.14516 3.85887 15.4355Z"/>
   <path id="shape34" transform="translate(217.512, 149.246)" fill="#dab298" fill-rule="evenodd" stroke="#000000" stroke-width="1.41732529000" d="M0 0C3.43011 0 20.1519 2.14382 50.1653 6.43145C48.4503 33.0148 45.8777 45.0202 42.4476 42.4476C37.3024 38.5887 37.3024 38.5887 0 0Z"/>
   <path id="shape35" transform="translate(217.512, 147.96)" fill="#dab298" fill-rule="evenodd" stroke="#000000" stroke-width="1.41732529000" d="M1.28629 5.14516C28.7271 21.4382 42.4476 31.7285 42.4476 36.0161C42.4476 40.3038 32.586 42.0188 12.8629 41.1613L0 0C3.43011 6.00269 4.7164 9.00403 3.85887 9.00403C2.57258 9.00403 2.57258 9.00403 1.28629 5.14516Z"/>
   <path id="shape36" transform="translate(306.241, 106.799)" fill="#f2d2bd" fill-rule="evenodd" stroke="#000000" stroke-width="1.41732529000" d="M47.6177 0C49.3327 29.1559 49.7615 44.1626 48.904 45.0202C47.6177 46.3064 -1.26134 45.0202 0.0249463 45.0202C1.31124 45.0202 1.31124 45.0202 47.6177 0Z"/>
   <path id="shape37" transform="translate(306.266, 104.226)" fill="#f2d2bd" fill-rule="evenodd" stroke="#000000" stroke-width="1.41732529000" d="M16.7218 0L0 29.5847L45.0202 7.71774C45.0202 7.71774 35.5874 5.14516 16.7218 0Z"/>
   <path id="shape38" transform="translate(301.072, 117.976)" fill="#dab298" fill-rule="evenodd" stroke="#000000" stroke-width="1.41732529000" d="M30.9204 0.399193C9.48227 14.9771 -0.808054 22.6949 0.0494727 23.5524C0.906999 24.4099 6.48092 26.5538 16.7712 29.9839C27.0616 7.68817 31.778 -2.17339 30.9204 0.399193Z"/>
   <path id="shape39" transform="translate(272.823, 137.67)" fill="#dab298" fill-rule="evenodd" stroke="#000000" stroke-width="1.41732529000" d="M0 18.2023C24.8683 6.06743 37.7312 0 38.5887 0C39.875 0 36.0161 36.4046 34.7298 38.8316C33.4435 41.2586 33.4435 41.2586 0 18.2023Z"/>
   <path id="shape40" transform="translate(259.96, 146.674)" fill="#bd8f7f" fill-rule="evenodd" stroke="#000000" stroke-width="1.41732529000" d="M0 0C5.14516 0 66.8871 47.5927 56.5968 52.7379C46.3064 57.8831 0 38.5887 1.28629 38.5887C2.57258 38.5887 2.57258 38.5887 0 0Z"/>
   <path id="shape41" transform="translate(315.27, 154.391)" fill="#b97b6c" fill-rule="evenodd" stroke="#000000" stroke-width="1.41732529000" d="M36.0161 0C42.0188 24.8683 44.1626 37.3024 42.4476 37.3024C39.875 37.3024 0 38.5887 0 37.3024C0 36.0161 0 36.0161 36.0161 0Z"/>
   <path id="shape42" transform="translate(307.552, 145.387)" fill="#bd8f7f" fill-rule="evenodd" stroke="#000000" stroke-width="1.41732529000" d="M0 0L46.3064 10.2903L5.14516 37.3024C5.14516 37.3024 3.43011 24.8683 0 0Z"/>
   <path id="shape43" transform="translate(312.698, 192.98)" fill="#b97b6c" fill-rule="evenodd" stroke="#000000" stroke-width="1.41732529000" d="M1.28629 0C2.14382 0 1.71505 11.5766 0 34.7298L29.5847 36.0161C29.5847 36.0161 20.1519 24.0107 1.28629 0Z"/>
   <path id="shape44" transform="translate(320.415, 190.979)" fill="#bd8f7f" fill-rule="evenodd" stroke="#000000" stroke-width="1.41732529000" d="M0 4.57348C0 2.85842 7.71774 17.4364 23.1532 48.3073C28.2984 17.4364 30.871 1.57213 30.871 0.714606C30.871 -0.571684 30.871 -0.571684 0 4.57348Z"/>
   <path id="shape45" transform="translate(317.843, 224.057)" fill="#5c5052" fill-rule="evenodd" stroke="#000000" stroke-width="1.41732529000" d="M0 1.08048L16.7218 52.5321C28.7271 20.8036 33.8723 4.93935 32.1573 4.93935C29.5847 4.93935 0 -2.77839 0 1.08048Z"/>
   <path id="shape46" transform="translate(302.407, 219.992)" fill="#b97b6c" fill-rule="evenodd" stroke="#000000" stroke-width="1.41732529000" d="M11.5766 0L0 37.3024L41.1613 33.4435C41.1613 33.4435 31.2997 22.2957 11.5766 0Z"/>
   <path id="shape47" transform="translate(301.121, 247.004)" fill="#5c5052" fill-rule="evenodd" stroke="#000000" stroke-width="1.41732529000" d="M2.57258 5.14516C3.43011 6.86021 16.7218 10.2903 42.4476 15.4355L21.8669 34.7298L0 0C0 0 0.857527 1.71505 2.57258 5.14516Z"/>
   <path id="shape48" transform="translate(356.431, 274.016)" fill="#5c5052" fill-rule="evenodd" stroke="#000000" stroke-width="1.41732529000" d="M0 20.5806L25.7258 25.7258L21.8669 0C21.8669 0 14.578 6.86021 0 20.5806Z"/>
   <path id="shape49" transform="translate(353.859, 259.867)" fill="#5c5052" fill-rule="evenodd" stroke="#000000" stroke-width="1.41732529000" d="M0 34.7298L5.14516 0C21.4382 9.43279 29.5847 14.578 29.5847 15.4355C29.5847 16.7218 29.5847 16.7218 0 34.7298Z"/>
   <path id="shape50" transform="translate(360.29, 230.282)" fill="#b97b6c" fill-rule="evenodd" stroke="#000000" stroke-width="1.41732529000" d="M24.4395 39.875C26.1546 37.3024 28.2984 24.0107 30.871 0L0 30.871C0 30.871 8.1465 33.8723 24.4395 39.875Z"/>
   <path id="shape51" transform="translate(365.435, 205.637)" fill="#b97b6c" fill-rule="evenodd" stroke="#000000" stroke-width="1.41732529000" d="M0 54.23L33.4435 27.2179C12.8629 7.49478 2.57258 -1.50925 2.57258 0.205806C2.57258 2.77839 2.57258 2.77839 0 54.23Z"/>
   <path id="shape52" transform="translate(361.577, 177.545)" fill="#bd8f7f" fill-rule="evenodd" stroke="#000000" stroke-width="1.41732529000" d="M34.7298 46.3064C35.5874 46.3064 32.586 30.871 25.7258 0L0 23.1532L32.1573 39.875C32.1573 39.875 33.0148 42.0188 34.7298 46.3064Z"/>
   <path id="shape53" transform="translate(384.73, 180.117)" fill="#bd8f7f" fill-rule="evenodd" stroke="#000000" stroke-width="1.41732529000" d="M11.5766 46.3064L29.5847 0L0 28.2984C0 28.2984 3.85887 34.3011 11.5766 46.3064Z"/>
   <path id="shape54" transform="translate(383.444, 181.403)" fill="#b97b6c" fill-rule="evenodd" stroke="#000000" stroke-width="1.41732529000" d="M0 0C0.857527 0 1.71505 3.85887 2.57258 11.5766L24.4395 1.28629C24.4395 1.28629 16.293 0.857527 0 0Z"/>
   <path id="shape55" transform="translate(378.298, 138.956)" fill="#dab298" fill-rule="evenodd" stroke="#000000" stroke-width="1.41732529000" d="M0 36.0161C0 35.1586 0.857527 23.1532 2.57258 0C24.0107 18.0081 33.0148 29.1559 29.5847 33.4435C24.4395 39.875 24.4395 39.875 0 36.0161Z"/>
   <path id="shape56" transform="translate(388.589, 141.528)" fill="#f2d2bd" fill-rule="evenodd" stroke="#000000" stroke-width="1.41732529000" d="M24.4395 43.7339L23.1532 0C7.71774 18.8656 0 27.8696 0 27.0121C0 25.7258 0 25.7258 24.4395 43.7339Z"/>
   <path id="shape57" transform="translate(375.726, 106.799)" fill="#f2d2bd" fill-rule="evenodd" stroke="#000000" stroke-width="1.41732529000" d="M8.95258 52.7379L37.3024 33.4435L25.3656 0L0 34.7298C4.97365 43.3051 7.95785 49.3078 8.95258 52.7379Z"/>
   <path id="shape58" transform="translate(370.581, 68.2099)" fill="#faeadb" fill-rule="evenodd" stroke="#000000" stroke-width="1.41732529000" d="M10.2903 61.7419C12.0054 60.8844 8.57527 40.3038 0 0L30.871 39.875C30.871 39.875 24.0107 47.164 10.2903 61.7419Z"/>
   <path id="shape59" transform="translate(377.012, 73.355)" fill="#fcf0f0" fill-rule="evenodd" stroke="#000000" stroke-width="1.41732529000" d="M0 1.28629L37.3024 0L47.5927 47.5927C36.4449 44.1626 30.0134 41.59 28.2984 39.875C25.7258 37.3024 1.28629 3.85887 0 1.28629Z"/>
   <path id="shape60" transform="translate(410.456, 111.944)" fill="#faeadb" fill-rule="evenodd" stroke="#000000" stroke-width="1.41732529000" d="M16.7218 0C34.7298 31.7285 42.8763 48.0215 41.1613 48.879C39.4462 49.7365 25.7258 38.1599 0 14.1492C0 14.1492 5.57392 9.43279 16.7218 0Z"/>
   <path id="shape61" transform="translate(404.024, 114.516)" fill="none" stroke="#000000" stroke-width="1.41732529000" d="M0 2.57258C4.28763 7.71774 6.86021 10.2903 7.71774 10.2903C8.57527 10.2903 12.4341 6.86021 19.2944 0C6.43145 5.14516 0 6.00269 0 2.57258Z"/>
   <path id="shape62" transform="translate(415.601, 82.3591)" fill="#fcf0f0" fill-rule="evenodd" stroke="#000000" stroke-width="1.41732529000" d="M0 0L55.3105 64.3145L37.3024 75.8911C37.3024 75.8911 24.8683 50.5941 0 0Z"/>
   <path id="shape63" transform="translate(449.044, 160.823)" fill="#dab298" fill-rule="evenodd" stroke="#000000" stroke-width="1.41732529000" d="M0 0L29.5847 70.746L48.879 52.7379C48.879 52.7379 32.586 35.1586 0 0Z"/>
   <path id="shape64" transform="translate(450.331, 150.532)" fill="#f2d2bd" fill-rule="evenodd" stroke="#000000" stroke-width="1.41732529000" d="M0 11.5766L16.7218 0L19.2944 33.4435C19.2944 33.4435 12.8629 26.1546 0 11.5766Z"/>
   <path id="shape65" transform="translate(469.625, 153.105)" fill="#f2d2bd" fill-rule="evenodd" stroke="#000000" stroke-width="1.41732529000" d="M2.57258 0L29.5847 54.0242L0 32.1573C0 32.1573 0.857527 21.4382 2.57258 0Z"/>
   <path id="shape66" transform="translate(500.496, 201.984)" fill="#dab298" fill-rule="evenodd" stroke="#000000" stroke-width="1.41732529000" d="M0 0L33.4435 54.0242L14.1492 61.7419C14.1492 61.7419 9.43279 41.1613 0 0Z"/>
   <path id="shape67" transform="translate(478.629, 207.129)" fill="#bd8f7f" fill-rule="evenodd" stroke="#000000" stroke-width="1.41732529000" d="M0 18.0081L33.4435 38.5887L25.7258 0C25.7258 0 17.1505 6.00269 0 18.0081Z"/>
   <path id="shape68" transform="translate(482.488, 225.137)" fill="#bd8f7f" fill-rule="evenodd" stroke="#000000" stroke-width="1.41732529000" d="M0 0L10.2903 32.1573L23.1532 21.8669C23.1532 21.8669 15.4355 14.578 0 0Z"/>
   <path id="shape69" transform="translate(494.064, 244.432)" fill="#b97b6c" fill-rule="evenodd" stroke="#000000" stroke-width="1.41732529000" d="M0 11.5766L12.8629 0L34.7298 64.3145C34.7298 64.3145 23.1532 46.7352 0 11.5766Z"/>
   <path id="shape70" transform="translate(513.359, 252.149)" fill="#b97b6c" fill-rule="evenodd" stroke="#000000" stroke-width="1.41732529000" d="M20.5806 0C22.2957 5.14516 20.1519 20.5806 14.1492 46.3064L0 7.71774C0 7.71774 6.86021 5.14516 20.5806 0Z"/>
   <path id="shape71" transform="translate(530.081, 266.299)" fill="#5c5052" fill-rule="evenodd" stroke="#000000" stroke-width="1.41732529000" d="M3.85887 6.43145C6.43145 6.43145 19.7231 17.1505 43.7339 38.5887L0 39.875L2.57258 0C2.57258 0 3.00134 2.14382 3.85887 6.43145Z"/>
   <path id="shape72" transform="translate(530.081, 245.671)" fill="#b97b6c" fill-rule="evenodd" stroke="#000000" stroke-width="1.41732529000" d="M0 25.7725C0 24.4862 25.7258 -1.23963 25.7258 0.0466581C25.7258 1.33295 46.3064 54.0708 43.7339 54.0708C41.1613 54.0708 41.1613 54.0708 0 25.7725Z"/>
   <path id="shape73" transform="translate(550.607, 222.565)" fill="#bd8f7f" fill-rule="evenodd" stroke="#000000" stroke-width="1.41732529000" d="M25.7803 72.0322C25.7803 68.6021 24.494 44.5914 21.9214 0C8.20102 20.5806 0.912039 30.871 0.054512 30.871C-1.23178 30.871 20.6352 73.3185 24.494 66.8871C28.3529 60.4556 28.3529 60.4556 25.7803 72.0322Z"/>
   <path id="shape74" transform="translate(535.226, 194.266)" fill="#f2d2bd" fill-rule="evenodd" stroke="#000000" stroke-width="1.41732529000" d="M1.28629 64.3145L0 0L41.1613 27.0121C41.1613 27.0121 27.8696 39.4462 1.28629 64.3145Z"/>
   <path id="shape75" transform="translate(550.661, 151.819)" fill="#faeadb" fill-rule="evenodd" stroke="#000000" stroke-width="1.41732529000" d="M21.8669 65.6008L39.875 1.28629L0 0C0 0 7.28898 21.8669 21.8669 65.6008Z"/>
   <path id="shape76" transform="translate(511.926, 136.383)" fill="#faeadb" fill-rule="evenodd" stroke="#000000" stroke-width="1.41732529000" d="M22.0139 51.4516C22.0139 50.1653 2.71958 0 0.147005 0C-1.56805 0 11.7236 6.86021 40.022 20.5806C40.022 20.5806 34.0193 30.871 22.0139 51.4516Z"/>
   <path id="shape77" transform="translate(536.512, 153.105)" fill="#faeadb" fill-rule="evenodd" stroke="#000000" stroke-width="1.41732529000" d="M0 33.4435L34.7298 66.8871L18.0081 0C18.0081 0 12.0054 11.1478 0 33.4435Z"/>
   <path id="shape78" transform="translate(568.669, 88.7905)" fill="#fcf0f0" fill-rule="evenodd" stroke="#000000" stroke-width="1.41732529000" d="M24.4395 56.5968C24.4395 47.164 26.5833 28.2984 30.871 0L0 27.0121C0 27.0121 8.1465 36.8736 24.4395 56.5968Z"/>
   <path id="shape79" transform="translate(545.462, 115.803)" fill="#fcf0f0" fill-rule="evenodd" stroke="#000000" stroke-width="1.41732529000" d="M21.9215 0C20.6352 1.28629 -1.23172 41.1613 0.0545717 43.7339C0.912098 45.4489 15.9188 41.1613 45.0747 30.871C45.0747 30.871 37.357 20.5806 21.9215 0Z"/>
   <path id="shape80" transform="translate(506.322, 102.94)" fill="#fcf0f0" fill-rule="evenodd" stroke="#000000" stroke-width="1.41732529000" d="M57.2021 11.5766L10.8956 0C0.605313 12.8629 -2.39603 21.8669 1.8916 27.0121C6.17924 32.1573 18.6134 39.4462 39.194 48.879C39.194 48.879 45.1967 36.4449 57.2021 11.5766Z"/>
  </g>
  <path id="shape81" transform="translate(585.262, 104.189)" fill="#ed4f4e" fill-rule="evenodd" stroke="#000000" stroke-width="1.41732529000" d="M0 15.4355L0 0C18.8656 12.8629 27.0121 19.2944 24.4395 19.2944C20.5806 19.2944 1.28629 19.2944 0 15.4355Z"/>
  <path id="shape82" transform="translate(582.689, 119.508)" fill="#fe975c" fill-rule="evenodd" stroke="#000000" stroke-width="1.41732529000" d="M0 3.97581L27.0121 11.6935C26.1546 3.11828 25.7258 -0.740591 25.7258 0.116935C25.7258 1.40323 25.7258 1.40323 0 3.97581Z"/>
  <path id="shape83" transform="translate(610.988, 127.343)" fill="#efac81" fill-rule="evenodd" stroke="#000000" stroke-width="1.41732529000" d="M3.85887 0L18.0081 9.00403L0 6.43145C0 6.43145 1.28629 4.28763 3.85887 0Z"/>
  <path id="shape84" transform="translate(608.415, 110.621)" fill="#fda96b" fill-rule="evenodd" stroke="#000000" stroke-width="1.41732529000" d="M0 0C0.857527 0.857527 1.28629 7.71774 1.28629 20.5806L34.7298 11.5766C34.7298 11.5766 23.1532 7.71774 0 0Z"/>
  <path id="shape85" transform="translate(610.988, 77.1774)" fill="#ed4f4e" fill-rule="evenodd" stroke="#000000" stroke-width="1.41732529000" d="M27.0121 34.7298C25.297 33.8723 24.8683 22.2957 25.7258 0L0 29.5847C18.0081 32.1573 27.0121 33.8723 27.0121 34.7298Z"/>
  <path id="shape86" transform="translate(583.794, 87.6492)" fill="#fb6950" fill-rule="evenodd" stroke="#000000" stroke-width="1.41732529000" d="M0 0L9.00403 30.871L36.0161 18.5226C36.0161 18.5226 24.0107 12.3484 0 0Z"/>
  <path id="shape87" transform="translate(585.262, 72.0322)" fill="#fb6950" fill-rule="evenodd" stroke="#000000" stroke-width="1.41732529000" d="M0 0L6.43145 21.8669L32.1573 33.4435C37.3024 27.4409 39.0175 24.4395 37.3024 24.4395C34.7298 24.4395 34.7298 24.4395 0 0Z"/>
  <path id="shape88" transform="translate(587.835, 72.0322)" fill="#fb6950" fill-rule="evenodd" stroke="#000000" stroke-width="1.41732529000" d="M0 0C0.857527 1.71505 17.5793 4.28763 50.1653 7.71774L33.4435 20.5806C33.4435 20.5806 22.2957 13.7204 0 0Z"/>
  <path id="shape89" transform="translate(591.693, 52.7379)" fill="#ed4f4e" fill-rule="evenodd" stroke="#000000" stroke-width="1.41732529000" d="M0 19.2944L9.00403 0C18.4368 12.8629 22.7245 20.1519 21.8669 21.8669C20.5806 24.4395 20.5806 24.4395 0 19.2944Z"/>
  <path id="shape90" transform="translate(600.697, 46.3064)" fill="#ed4f4e" fill-rule="evenodd" stroke="#000000" stroke-width="1.41732529000" d="M34.7298 30.871C18.4368 25.7258 10.2903 24.0107 10.2903 25.7258C10.2903 27.4409 6.86021 18.8656 0 0C23.1532 20.5806 34.7298 30.871 34.7298 30.871Z"/>
  <path id="shape91" transform="translate(618.706, 99.0443)" fill="#fb6950" fill-rule="evenodd" stroke="#000000" stroke-width="1.41732529000" d="M18.0081 0L25.7258 19.2944L0 14.1492C0 14.1492 6.00269 9.43279 18.0081 0Z"/>
  <path id="shape92" transform="translate(573.504, 83.6089)" fill="#c94b4e" fill-rule="evenodd" stroke="#000000" stroke-width="1.41732529000" d="M11.5766 29.5847C9.00403 31.2997 5.14516 36.4449 0 45.0202L14.1492 0C14.1492 0 13.2917 9.86156 11.5766 29.5847Z"/>
  <path id="shape93" transform="translate(577.544, 51.4516)" fill="#c94b4e" fill-rule="evenodd" stroke="#000000" stroke-width="1.41732529000" d="M10.2903 0L11.5766 39.875L0 50.1653C0 50.1653 3.43011 33.4435 10.2903 0Z"/>
  <path id="shape94" transform="translate(585.262, 40.9798)" fill="#c94b4e" fill-rule="evenodd" stroke="#000000" stroke-width="1.41732529000" d="M0 15.4355C0 14.578 10.7191 9.43279 32.1573 0L5.14516 27.0121C5.14516 27.0121 3.43011 23.1532 0 15.4355Z"/>
  <path id="shape95" transform="translate(571.113, 55.3105)" fill="#ed4f4e" fill-rule="evenodd" stroke="#000000" stroke-width="1.41732529000" d="M11.5766 0C3.85887 18.0081 0 27.4409 0 28.2984C0 29.1559 2.57258 33.0148 7.71774 39.875C7.71774 39.875 9.00403 26.5833 11.5766 0Z"/>
  <path id="shape96" transform="translate(636.895, 74.6048)" fill="#c94b4e" fill-rule="evenodd" stroke="#000000" stroke-width="1.41732529000" d="M0 43.4751C3.43011 41.0598 12.0054 35.6254 25.7258 27.1719L0 0C2.28674 31.3987 2.28674 45.8904 0 43.4751Z"/>
  <path id="shape97" transform="translate(603.27, 48.879)" fill="#ed4f4e" fill-rule="evenodd" stroke="#000000" stroke-width="1.41732529000" d="M33.4435 34.7298C34.3011 33.0148 33.8723 22.7245 32.1573 3.85887L0 0C0 0 11.1478 11.5766 33.4435 34.7298Z"/>
  <path id="shape98" transform="translate(634.322, 37.3024)" fill="#c94b4e" fill-rule="evenodd" stroke="#000000" stroke-width="1.41732529000" d="M0 19.2944L9.00403 47.5927L12.8629 0C12.8629 0 8.57527 6.43145 0 19.2944Z"/>
  <path id="shape99" transform="translate(608.597, 42.2661)" fill="#c94b4e" fill-rule="evenodd" stroke="#000000" stroke-width="1.41732529000" d="M0 7.71774C4.28763 7.71774 12.0054 9.86156 23.1532 14.1492L37.3024 0C37.3024 0 24.8683 2.57258 0 7.71774Z"/>
 </g>
</svg>
